#tb 0: 1/25
0,          0,          0,        1,  2764800, 0x4f710132
0,          1,          1,        1,  2764800, 0x57e5b713
0,          2,          2,        1,  2764800, 0xcca01477
0,          3,          3,        1,  2764800, 0xa19a95cd
0,          4,          4,        1,  2764800, 0x700a757d
0,          5,          5,        1,  2764800, 0xd8c6f60f
0,          6,          6,        1,  2764800, 0x95a1bbc7
0,          7,          7,        1,  2764800, 0x0582077a
0,          8,          8,        1,  2764800, 0x91595f91
0,          9,          9,        1,  2764800, 0xf5fe034a
